<?xml version="1.0" encoding="utf-8"?>
<!-- Generator: Adobe Illustrator 22.0.1, SVG Export Plug-In . SVG Version: 6.00 Build 0)  -->
<svg version="1.1" id="Calque_1" xmlns="http://www.w3.org/2000/svg" xmlns:xlink="http://www.w3.org/1999/xlink" x="0px" y="0px"
	 viewBox="0 0 533.5 533.5" style="enable-background:new 0 0 533.5 533.5;" xml:space="preserve">
<style type="text/css">
	.st0{fill:#96e09c;}
	.st1{fill:#7eb784;}
	.st2{fill:#FFFFFF;}
</style>
<title>forum</title>
<path class="st0" d="M62.1,0h409.3c34.3,0,62.1,27.8,62.1,62.1v409.3c0,34.3-27.8,62.1-62.1,62.1H62.1C27.8,533.5,0,505.7,0,471.4
	V62.1C0,27.8,27.8,0,62.1,0z"/>
<polygon class="st1" points="503.7,503.7 29.8,503.7 29.8,29.8 "/>
<path class="st2" d="M424.5,91.5H109c-19.3,0-35.1,15.8-35.1,35.1v210.4c0,19.3,15.8,35.1,35.1,35.1h122.7V407h-35.1v35.1h140.3V407
	h-35.1V372h122.7c19.3,0,35.1-15.8,35.1-35.1V126.5C459.6,107.2,443.8,91.5,424.5,91.5z M424.5,336.9H109V126.5h315.6V336.9z"/>
<rect x="109" y="126.5" class="st1" width="315.6" height="210.4"/>
</svg>
